<svg width="596" height="100" viewBox="0 0 596 100" fill="none" xmlns="http://www.w3.org/2000/svg">
<path d="M50 1.61804L60.7502 34.7037L60.8624 35.0491H61.2257H96.014L67.8697 55.4972L67.5758 55.7107L67.688 56.0562L78.4382 89.1418L50.2939 68.6938L50 68.4803L49.7061 68.6938L21.5618 89.1418L32.312 56.0562L32.4242 55.7107L32.1303 55.4972L3.98601 35.0491H38.7743H39.1376L39.2498 34.7037L50 1.61804Z" fill="#FFDD55" stroke="#BEAC0D"/>
<path d="M174 1.61804L184.75 34.7037L184.862 35.0491H185.226H220.014L191.87 55.4972L191.576 55.7107L191.688 56.0562L202.438 89.1418L174.294 68.6938L174 68.4803L173.706 68.6938L145.562 89.1418L156.312 56.0562L156.424 55.7107L156.13 55.4972L127.986 35.0491H162.774H163.138L163.25 34.7037L174 1.61804Z" fill="#FFDD55" stroke="#BEAC0D"/>
<path d="M298 1.61804L308.75 34.7037L308.862 35.0491H309.226H344.014L315.87 55.4972L315.576 55.7107L315.688 56.0562L326.438 89.1418L298.294 68.6938L298 68.4803L297.706 68.6938L269.562 89.1418L280.312 56.0562L280.424 55.7107L280.13 55.4972L251.986 35.0491H286.774H287.138L287.25 34.7037L298 1.61804Z" fill="#FFDD55" stroke="#BEAC0D"/>
<path d="M422 1.61804L432.75 34.7037L432.862 35.0491H433.226H468.014L439.87 55.4972L439.576 55.7107L439.688 56.0562L450.438 89.1418L422.294 68.6938L422 68.4803L421.706 68.6938L393.562 89.1418L404.312 56.0562L404.424 55.7107L404.13 55.4972L375.986 35.0491H410.774H411.138L411.25 34.7037L422 1.61804Z" fill="#FFDD55" stroke="#BEAC0D"/>
<path d="M546 0L557.226 34.5491H593.553L564.164 55.9017L575.389 90.4509L546 69.0983L516.611 90.4509L527.836 55.9017L498.447 34.5491H534.774L546 0Z" fill="#D9D9D9"/>
<path d="M545.5 68.8435L517.562 89.1418L528.312 56.0562L528.424 55.7107L528.13 55.4972L499.986 35.0491H534.774H535.138L535.25 34.7037L545.5 3.15688V55.9017V68.8435Z" fill="#FFDD55" stroke="#BEAC0D"/>
</svg>
