<svg width="101" height="101" viewBox="0 0 101 101" fill="none" xmlns="http://www.w3.org/2000/svg">
<g clip-path="url(#clip0_11_2)">
<path d="M100.941 50.7624C100.941 23.1481 78.5548 0.762375 50.9406 0.762375C23.3263 0.762375 0.94059 23.1481 0.94059 50.7624C0.94059 75.7188 19.2249 96.404 43.1281 100.155V65.2155H30.4328V50.7624H43.1281V39.7468C43.1281 27.2155 50.5927 20.2936 62.0138 20.2936C67.4842 20.2936 73.2062 21.2702 73.2062 21.2702V33.5749H66.9013C60.6901 33.5749 58.7531 37.4291 58.7531 41.3832V50.7624H72.6203L70.4035 65.2155H58.7531V100.155C82.6563 96.404 100.941 75.7188 100.941 50.7624Z" fill="#1877F2"/>
<path d="M70.4035 65.2155L72.6203 50.7624H58.7531V41.3832C58.7531 37.4291 60.6901 33.5749 66.9013 33.5749H73.2062V21.2702C73.2062 21.2702 67.4842 20.2936 62.0138 20.2936C50.5927 20.2936 43.1281 27.2155 43.1281 39.7468V50.7624H30.4328V65.2155H43.1281V100.155C45.6737 100.554 48.2828 100.762 50.9406 100.762C53.5984 100.762 56.2075 100.554 58.7531 100.155V65.2155H70.4035Z" fill="white"/>
</g>
<defs>
<clipPath id="clip0_11_2">
<rect width="100" height="100" fill="white" transform="translate(0.94059 0.762375)"/>
</clipPath>
</defs>
</svg>
