<svg width="101" height="101" viewBox="0 0 101 101" fill="none" xmlns="http://www.w3.org/2000/svg">
<g clip-path="url(#clip0_11_6)">
<path d="M50.9008 0.806396C30.3393 0.806396 24.3258 0.827608 23.1569 0.924575C18.9373 1.27532 16.3117 1.9397 13.4512 3.36389C11.2467 4.45856 9.50809 5.72746 7.79223 7.50619C4.66733 10.75 2.77344 14.7408 2.08786 19.4846C1.75454 21.7876 1.65757 22.2573 1.63787 34.0205C1.6303 37.9416 1.63787 43.1021 1.63787 50.0238C1.63787 70.5687 1.6606 76.5761 1.75908 77.7427C2.09998 81.8486 2.7439 84.4319 4.1075 87.2576C6.71348 92.6665 11.6906 96.727 17.5541 98.2421C19.5843 98.7648 21.8267 99.0527 24.7054 99.189C25.925 99.2421 38.3565 99.2799 50.7955 99.2799C63.2345 99.2799 75.6735 99.2648 76.8629 99.2042C80.1961 99.0474 82.1316 98.7875 84.2717 98.2345C90.1731 96.7118 95.0593 92.7119 97.7183 87.2273C99.0554 84.4698 99.7334 81.788 100.04 77.8965C100.107 77.048 100.135 63.5204 100.135 50.011C100.135 36.4993 100.105 22.9966 100.038 22.1482C99.7273 18.1937 99.0493 15.5347 97.6691 12.7242C96.5365 10.4235 95.279 8.7054 93.4533 6.94863C90.195 3.83661 86.2103 1.94273 81.462 1.2579C79.1613 0.925332 78.703 0.82685 66.9306 0.806396H50.9008Z" fill="url(#paint0_radial_11_6)"/>
<path d="M50.9008 0.806396C30.3393 0.806396 24.3258 0.827608 23.1569 0.924575C18.9373 1.27532 16.3117 1.9397 13.4512 3.36389C11.2467 4.45856 9.50809 5.72746 7.79223 7.50619C4.66733 10.75 2.77344 14.7408 2.08786 19.4846C1.75454 21.7876 1.65757 22.2573 1.63787 34.0205C1.6303 37.9416 1.63787 43.1021 1.63787 50.0238C1.63787 70.5687 1.6606 76.5761 1.75908 77.7427C2.09998 81.8486 2.7439 84.4319 4.1075 87.2576C6.71348 92.6665 11.6906 96.727 17.5541 98.2421C19.5843 98.7648 21.8267 99.0527 24.7054 99.189C25.925 99.2421 38.3565 99.2799 50.7955 99.2799C63.2345 99.2799 75.6735 99.2648 76.8629 99.2042C80.1961 99.0474 82.1316 98.7875 84.2717 98.2345C90.1731 96.7118 95.0593 92.7119 97.7183 87.2273C99.0554 84.4698 99.7334 81.788 100.04 77.8965C100.107 77.048 100.135 63.5204 100.135 50.011C100.135 36.4993 100.105 22.9966 100.038 22.1482C99.7273 18.1937 99.0493 15.5347 97.6691 12.7242C96.5365 10.4235 95.279 8.7054 93.4533 6.94863C90.195 3.83661 86.2103 1.94273 81.462 1.2579C79.1613 0.925332 78.703 0.82685 66.9306 0.806396H50.9008Z" fill="url(#paint1_radial_11_6)"/>
<path d="M50.878 13.6848C41.0026 13.6848 39.7632 13.728 35.8846 13.9045C32.0135 14.0817 29.3711 14.6946 27.0591 15.5938C24.6675 16.5226 22.6388 17.765 20.6176 19.7869C18.5949 21.808 17.3525 23.8368 16.4208 26.2276C15.5193 28.5404 14.9057 31.1835 14.7314 35.0531C14.5579 38.9318 14.5125 40.1719 14.5125 50.0473C14.5125 59.9228 14.5564 61.1584 14.7322 65.037C14.9102 68.9081 15.5231 71.5505 16.4215 73.8625C17.351 76.2541 18.5934 78.2828 20.6153 80.304C22.6357 82.3267 24.6644 83.5721 27.0545 84.5008C29.3681 85.4 32.0112 86.0129 35.8815 86.1902C39.7602 86.3667 40.9988 86.4099 50.8735 86.4099C60.7497 86.4099 61.9853 86.3667 65.864 86.1902C69.7351 86.0129 72.3804 85.4 74.694 84.5008C77.0848 83.5721 79.1105 82.3267 81.1309 80.304C83.1536 78.2828 84.396 76.2541 85.3278 73.8633C86.2217 71.5505 86.8353 68.9074 87.0171 65.0378C87.1913 61.1591 87.2368 59.9228 87.2368 50.0473C87.2368 40.1719 87.1913 38.9325 87.0171 35.0538C86.8353 31.1827 86.2217 28.5404 85.3278 26.2283C84.396 23.8368 83.1536 21.808 81.1309 19.7869C79.1083 17.7642 77.0856 16.5218 74.6917 15.5938C72.3736 14.6946 69.7297 14.0817 65.8587 13.9045C61.98 13.728 60.7452 13.6848 50.8667 13.6848H50.878ZM47.616 20.2376C48.5842 20.2361 49.6644 20.2376 50.878 20.2376C60.5868 20.2376 61.7376 20.2725 65.5715 20.4467C69.1169 20.6088 71.0411 21.2012 72.3228 21.6989C74.0198 22.358 75.2296 23.1459 76.5015 24.4186C77.7742 25.6912 78.5621 26.9033 79.2226 28.6002C79.7204 29.8805 80.3135 31.8047 80.4749 35.35C80.6491 39.1833 80.687 40.3347 80.687 50.039C80.687 59.7432 80.6491 60.8947 80.4749 64.7279C80.3128 68.2733 79.7204 70.1975 79.2226 71.4777C78.5636 73.1747 77.7742 74.383 76.5015 75.6549C75.2288 76.9276 74.0205 77.7154 72.3228 78.3745C71.0426 78.8745 69.1169 79.4654 65.5715 79.6275C61.7383 79.8017 60.5868 79.8396 50.878 79.8396C41.1685 79.8396 40.0178 79.8017 36.1846 79.6275C32.6392 79.4639 30.715 78.8715 29.4325 78.3737C27.7356 77.7147 26.5235 76.9268 25.2508 75.6541C23.9781 74.3814 23.1902 73.1724 22.5297 71.4747C22.032 70.1944 21.4388 68.2703 21.2774 64.7249C21.1032 60.8917 21.0683 59.7402 21.0683 50.0299C21.0683 40.3196 21.1032 39.1742 21.2774 35.341C21.4395 31.7956 22.032 29.8714 22.5297 28.5896C23.1887 26.8927 23.9781 25.6806 25.2508 24.408C26.5235 23.1353 27.7356 22.3474 29.4325 21.6868C30.7143 21.1868 32.6392 20.5959 36.1846 20.4331C39.539 20.2816 40.839 20.2361 47.616 20.2285V20.2376ZM70.2881 26.2753C67.879 26.2753 65.9246 28.2275 65.9246 30.6373C65.9246 33.0463 67.879 35.0008 70.2881 35.0008C72.6971 35.0008 74.6516 33.0463 74.6516 30.6373C74.6516 28.2283 72.6971 26.2738 70.2881 26.2738V26.2753ZM50.878 31.3736C40.5655 31.3736 32.2044 39.7348 32.2044 50.0473C32.2044 60.3599 40.5655 68.7172 50.878 68.7172C61.1906 68.7172 69.5487 60.3599 69.5487 50.0473C69.5487 39.7348 61.1906 31.3736 50.878 31.3736ZM50.878 37.9265C57.5718 37.9265 62.9989 43.3528 62.9989 50.0473C62.9989 56.7411 57.5718 62.1682 50.878 62.1682C44.1836 62.1682 38.7572 56.7411 38.7572 50.0473C38.7572 43.3528 44.1836 37.9265 50.878 37.9265Z" fill="white"/>
</g>
<defs>
<radialGradient id="paint0_radial_11_6" cx="0" cy="0" r="1" gradientUnits="userSpaceOnUse" gradientTransform="translate(27.7988 106.864) rotate(-90) scale(97.5945 90.7954)">
<stop stop-color="#FFDD55"/>
<stop offset="0.1" stop-color="#FFDD55"/>
<stop offset="0.5" stop-color="#FF543E"/>
<stop offset="1" stop-color="#C837AB"/>
</radialGradient>
<radialGradient id="paint1_radial_11_6" cx="0" cy="0" r="1" gradientUnits="userSpaceOnUse" gradientTransform="translate(-14.8648 7.90026) rotate(78.6776) scale(43.6256 179.872)">
<stop stop-color="#3771C8"/>
<stop offset="0.128" stop-color="#3771C8"/>
<stop offset="1" stop-color="#6600FF" stop-opacity="0"/>
</radialGradient>
<clipPath id="clip0_11_6">
<rect width="100" height="99.997" fill="white" transform="translate(0.876526 0.0488434)"/>
</clipPath>
</defs>
</svg>
